<?xml version="1.0" encoding="UTF-8" standalone="no"?>
<svg width="14px" height="16px" viewBox="0 0 14 16" version="1.1" xmlns="http://www.w3.org/2000/svg" xmlns:xlink="http://www.w3.org/1999/xlink">
    <!-- Generator: Sketch 3.7.2 (28276) - http://www.bohemiancoding.com/sketch -->
    <title>Page 1</title>
    <desc>Created with Sketch.</desc>
    <defs></defs>
    <g id="Page-1" stroke="none" stroke-width="1" fill="none" fill-rule="evenodd">
        <g id="Predlosci" transform="translate(-1154.000000, -324.000000)" fill="#D0011B">
            <g id="Page-1" transform="translate(1154.000000, 324.000000)">
                <path d="M0.032,1.42189474 L4.76063158,1.42189474 L4.76063158,0.191578947 L8.80105263,0.191578947 L8.80105263,1.42189474 L13.5296842,1.42189474 L13.5296842,3.28378947 L0.0311578947,3.28378947 L0.032,1.42189474 Z" id="Fill-1"></path>
                <path d="M1.26652632,4.07326316 L12.5237895,4.07326316 L12.5237895,15.884 L1.26652632,15.884 L1.26652632,4.07326316 Z M11.2513684,5.37094737 L9.65136842,5.37094737 L9.65136842,14.7063158 L11.2513684,14.7063158 L11.2513684,5.37094737 Z M7.87621053,5.37915789 L6.27621053,5.37915789 L6.27621053,14.7147368 L7.87621053,14.7147368 L7.87621053,5.37915789 Z M4.50126316,5.45389474 L2.90126316,5.45389474 L2.90126316,14.7894737 L4.50126316,14.7894737 L4.50126316,5.45389474 Z" id="Fill-2"></path>
            </g>
        </g>
    </g>
</svg>