<?xml version="1.0" encoding="UTF-8" standalone="no"?>
<svg width="14px" height="16px" viewBox="0 0 14 16" version="1.1" xmlns="http://www.w3.org/2000/svg" xmlns:xlink="http://www.w3.org/1999/xlink">
    <!-- Generator: Sketch 3.7.2 (28276) - http://www.bohemiancoding.com/sketch -->
    <title>Page 1</title>
    <desc>Created with Sketch.</desc>
    <defs></defs>
    <g id="Page-1" stroke="none" stroke-width="1" fill="none" fill-rule="evenodd">
        <g id="Alarmi" transform="translate(-259.000000, -239.000000)" fill="#D0011B">
            <g id="Page-1" transform="translate(259.000000, 239.000000)">
                <path d="M0.44992,2.8416 C0.3008,2.18090667 0.76992,1.60490667 2.21994667,0.751573333 C3.69173333,-0.08 4.50176,-0.186666667 4.97088,0.26176 L5.78090667,1.39157333 C3.86176,1.73248 2.21909333,2.69248 0.960853333,4.1216 L0.44992,2.8416 Z" id="Fill-1"></path>
                <path d="M6.93333333,2.1376 C3.09418667,2.1376 0.00256,5.23008 0.00256,9.06922667 C0.00256,12.8866133 3.09418667,16 6.93333333,16 C10.7509333,16 13.8641067,12.8866133 13.8641067,9.06922667 C13.8641067,5.23008 10.7509333,2.1376 6.93333333,2.1376 L6.93333333,2.1376 Z M6.93333333,14.4642133 C3.94752,14.4642133 1.53749333,12.0541867 1.53749333,9.06837333 C1.53749333,6.08256 3.94752,3.67253333 6.93333333,3.67253333 C9.91914667,3.67253333 12.3291733,6.08341333 12.3291733,9.06922667 C12.3291733,12.0541867 9.91914667,14.4642133 6.93333333,14.4642133 L6.93333333,14.4642133 Z" id="Fill-2"></path>
                <path d="M4.92842667,9.96501333 L6.20842667,8.85589333 L6.18666667,5.48586667 C6.29333333,4.54741333 7.80757333,4.65408 7.76490667,5.44341333 L7.76490667,8.85589333 C7.76490667,9.55925333 7.68,9.62325333 7.42336,9.83658667 L5.90912,11.1799467 C5.16330667,11.7557333 4.16085333,10.6466133 4.92842667,9.96501333 L4.92842667,9.96501333 Z" id="Fill-3"></path>
                <path d="M13.3949867,2.86250667 C13.5234133,2.2016 13.0967467,1.64672 11.6034133,0.77248 C10.1109333,-0.0808533333 9.3216,-0.16576 8.87338667,0.282453333 L8.04245333,1.41248 C9.98336,1.75338667 11.6042667,2.71338667 12.8842667,4.14250667 L13.3949867,2.86250667 Z" id="Fill-4"></path>
            </g>
        </g>
    </g>
</svg>