<?xml version="1.0" encoding="UTF-8" standalone="no"?>
<svg width="241px" height="34px" viewBox="0 0 241 34" version="1.1" xmlns="http://www.w3.org/2000/svg" xmlns:xlink="http://www.w3.org/1999/xlink">
    <!-- Generator: Sketch 3.7.2 (28276) - http://www.bohemiancoding.com/sketch -->
    <title>logo</title>
    <desc>Created with Sketch.</desc>
    <defs></defs>
    <g id="Symbols" stroke="none" stroke-width="1" fill="none" fill-rule="evenodd">
        <g id="Header" transform="translate(-1.000000, -8.000000)">
            <g id="logo" transform="translate(1.000000, 4.000000)">
                <path d="M14.2382812,11.5976562 C14.2382812,12.6914117 14.0885432,13.6923783 13.7890625,14.6005859 C13.4895818,15.5087936 13.0419952,16.2884082 12.4462891,16.9394531 C11.850583,17.590498 11.1116581,18.0966779 10.2294922,18.4580078 C9.34732632,18.8193377 8.32357354,19 7.15820312,19 L0.556640625,19 L0.556640625,17.9355469 L1.39648438,17.9355469 C1.54622471,17.9355469 1.68294209,17.9208986 1.80664062,17.8916016 C1.93033916,17.8623045 2.03775996,17.8020838 2.12890625,17.7109375 C2.22005254,17.6197912 2.29166641,17.4895842 2.34375,17.3203125 C2.39583359,17.1510408 2.421875,16.9231785 2.421875,16.6367188 L2.421875,6.99804688 C2.421875,6.73111846 2.39583359,6.51790444 2.34375,6.35839844 C2.29166641,6.19889243 2.21842495,6.07682334 2.12402344,5.9921875 C2.02962192,5.90755166 1.92057354,5.85058608 1.796875,5.82128906 C1.67317646,5.79199204 1.53971426,5.77734375 1.39648438,5.77734375 L0.556640625,5.77734375 L0.556640625,4.72265625 L7.15820312,4.72265625 C8.26497949,4.72265625 9.25618052,4.86751157 10.1318359,5.15722656 C11.0074914,5.44694155 11.7496714,5.87987993 12.3583984,6.45605469 C12.9671254,7.03222944 13.4326156,7.7499957 13.7548828,8.609375 C14.07715,9.4687543 14.2382812,10.4648381 14.2382812,11.5976562 L14.2382812,11.5976562 Z M10.859375,11.5976562 C10.859375,9.69009463 10.5094436,8.27083799 9.80957031,7.33984375 C9.10969702,6.40884951 8.07943389,5.94335938 6.71875,5.94335938 L5.57617188,5.94335938 L5.57617188,17.7597656 L6.69921875,17.7597656 C7.38281592,17.7597656 7.98502344,17.6181655 8.50585938,17.3349609 C9.02669531,17.0517564 9.46126128,16.6432318 9.80957031,16.109375 C10.1578793,15.5755182 10.419921,14.9293658 10.5957031,14.1708984 C10.7714853,13.4124311 10.859375,12.5546923 10.859375,11.5976562 L10.859375,11.5976562 Z M26.6601562,13.5996094 C26.6601562,15.4811292 26.2190799,16.88411 25.3369141,17.8085938 C24.4547482,18.7330775 23.1575606,19.1953125 21.4453125,19.1953125 C20.6445272,19.1953125 19.9251334,19.0797538 19.2871094,18.8486328 C18.6490854,18.6175119 18.1070986,18.2708356 17.6611328,17.8085938 C17.215167,17.3463519 16.8733736,16.7636754 16.6357422,16.0605469 C16.3981108,15.3574184 16.2792969,14.5371141 16.2792969,13.5996094 C16.2792969,11.7180896 16.7203732,10.318364 17.6025391,9.40039062 C18.4847049,8.48241729 19.7851477,8.0234375 21.5039062,8.0234375 C22.3046915,8.0234375 23.0224578,8.13736865 23.6572266,8.36523438 C24.2919954,8.5931001 24.8323545,8.93814873 25.2783203,9.40039062 C25.7242861,9.86263252 26.0660795,10.4436814 26.3037109,11.1435547 C26.5413423,11.843428 26.6601562,12.6621047 26.6601562,13.5996094 L26.6601562,13.5996094 Z M19.3847656,13.5996094 C19.3847656,14.3092483 19.4222001,14.9342421 19.4970703,15.4746094 C19.5719405,16.0149767 19.692382,16.4674461 19.8583984,16.8320312 C20.0244149,17.1966164 20.2408841,17.4716788 20.5078125,17.6572266 C20.7747409,17.8427744 21.1002585,17.9355469 21.484375,17.9355469 C21.8684915,17.9355469 22.1923815,17.8427744 22.4560547,17.6572266 C22.7197279,17.4716788 22.9345695,17.1966164 23.1005859,16.8320312 C23.2666024,16.4674461 23.3854163,16.0149767 23.4570312,15.4746094 C23.5286462,14.9342421 23.5644531,14.3092483 23.5644531,13.5996094 C23.5644531,12.88346 23.5270186,12.2568386 23.4521484,11.7197266 C23.3772783,11.1826145 23.2568368,10.7350278 23.0908203,10.3769531 C22.9248039,10.0188784 22.7083347,9.75032642 22.4414062,9.57128906 C22.1744778,9.39225171 21.8489603,9.30273438 21.4648438,9.30273438 C21.0807272,9.30273438 20.7552097,9.39225171 20.4882812,9.57128906 C20.2213528,9.75032642 20.0065112,10.0188784 19.84375,10.3769531 C19.6809888,10.7350278 19.5638024,11.1826145 19.4921875,11.7197266 C19.4205726,12.2568386 19.3847656,12.88346 19.3847656,13.5996094 L19.3847656,13.5996094 Z M33.4960938,19.1953125 C32.760413,19.1953125 32.0882192,19.1009124 31.4794922,18.9121094 C30.8707652,18.7233063 30.3483095,18.4108095 29.9121094,17.9746094 C29.4759093,17.5384093 29.137371,16.9687535 28.8964844,16.265625 C28.6555978,15.5624965 28.5351562,14.6998749 28.5351562,13.6777344 C28.5351562,12.5969998 28.6604805,11.6953161 28.9111328,10.9726562 C29.1617851,10.2499964 29.5068337,9.6705751 29.9462891,9.234375 C30.3857444,8.7981749 30.9049449,8.48730562 31.5039062,8.30175781 C32.1028676,8.11621001 32.7473924,8.0234375 33.4375,8.0234375 C34.0820345,8.0234375 34.6516902,8.0771479 35.1464844,8.18457031 C35.6412785,8.29199272 36.0546858,8.44010322 36.3867188,8.62890625 C36.7187517,8.81770928 36.9710278,9.04068882 37.1435547,9.29785156 C37.3160816,9.55501431 37.4023438,9.83007666 37.4023438,10.1230469 C37.4023438,10.3378917 37.3649092,10.5478505 37.2900391,10.7529297 C37.2151689,10.9580088 37.0817067,11.1386711 36.8896484,11.2949219 C36.6975902,11.4511727 36.4339209,11.5781245 36.0986328,11.6757812 C35.7633447,11.773438 35.3352891,11.8222656 34.8144531,11.8222656 C34.8144531,11.4772118 34.7932945,11.1484391 34.7509766,10.8359375 C34.7086586,10.5234359 34.6386724,10.2500012 34.5410156,10.015625 C34.4433589,9.78124883 34.3115243,9.59407622 34.1455078,9.45410156 C33.9794914,9.3141269 33.7695325,9.24414062 33.515625,9.24414062 C33.2226548,9.24414062 32.9606131,9.3141269 32.7294922,9.45410156 C32.4983712,9.59407622 32.2998055,9.83333164 32.1337891,10.171875 C31.9677726,10.5104184 31.8408208,10.9628878 31.7529297,11.5292969 C31.6650386,12.095706 31.6210938,12.8053343 31.6210938,13.6582031 C31.6210938,15.0123766 31.8066388,16.0247362 32.1777344,16.6953125 C32.54883,17.3658888 33.1542927,17.7011719 33.9941406,17.7011719 C34.3391944,17.7011719 34.6630844,17.6604822 34.9658203,17.5791016 C35.2685562,17.4977209 35.5436186,17.3837898 35.7910156,17.2373047 C36.0384127,17.0908196 36.2548819,16.9182953 36.4404297,16.7197266 C36.6259775,16.5211579 36.7773432,16.3079438 36.8945312,16.0800781 C37.0572925,16.1777349 37.177734,16.3095695 37.2558594,16.4755859 C37.3339848,16.6416024 37.3730469,16.8157543 37.3730469,16.9980469 C37.3730469,17.2519544 37.2981778,17.5091133 37.1484375,17.7695312 C36.9986972,18.0299492 36.7659521,18.2659495 36.4501953,18.4775391 C36.1344385,18.6891287 35.7324243,18.861653 35.2441406,18.9951172 C34.7558569,19.1285814 34.1731805,19.1953125 33.4960938,19.1953125 L33.4960938,19.1953125 Z M46.9921875,19 L46.5527344,17.5839844 L46.4550781,17.5839844 C46.2532542,17.9290382 46.0351574,18.2073557 45.8007812,18.4189453 C45.5664051,18.6305349 45.3157565,18.7932937 45.0488281,18.9072266 C44.7818997,19.0211594 44.500327,19.0976561 44.2041016,19.1367188 C43.9078761,19.1757814 43.6035172,19.1953125 43.2910156,19.1953125 C42.2493438,19.1953125 41.4501981,18.8730501 40.8935547,18.2285156 C40.3369113,17.5839812 40.0585938,16.5878974 40.0585938,15.2402344 L40.0585938,10.7578125 C40.0585938,10.4648423 40.0325523,10.2272145 39.9804688,10.0449219 C39.9283852,9.8626293 39.8470058,9.71940156 39.7363281,9.61523438 C39.6256505,9.51106719 39.4840503,9.43945332 39.3115234,9.40039062 C39.1389965,9.36132793 38.9322929,9.34179688 38.6914062,9.34179688 L38.6523438,9.34179688 L38.6523438,8.27734375 L43.0957031,8.27734375 L43.0957031,14.6835938 C43.0957031,15.1132834 43.1201169,15.5006493 43.1689453,15.8457031 C43.2177737,16.1907569 43.3007807,16.4853503 43.4179688,16.7294922 C43.5351568,16.973634 43.6914053,17.1624342 43.8867188,17.2958984 C44.0820322,17.4293626 44.3261704,17.4960938 44.6191406,17.4960938 C44.9381526,17.4960938 45.213215,17.4261075 45.4443359,17.2861328 C45.6754569,17.1461582 45.8642571,16.9443373 46.0107422,16.6806641 C46.1572273,16.4169909 46.2646481,16.0979836 46.3330078,15.7236328 C46.4013675,15.349282 46.4355469,14.9277367 46.4355469,14.4589844 L46.4355469,10.6210938 C46.4355469,10.3281235 46.3964848,10.0970061 46.3183594,9.92773438 C46.240234,9.7584627 46.1360684,9.62988325 46.0058594,9.54199219 C45.8756504,9.45410112 45.7226571,9.39876313 45.546875,9.37597656 C45.3710929,9.35318999 45.1855479,9.34179688 44.9902344,9.34179688 L44.9316406,9.34179688 L44.9316406,8.27734375 L49.4726562,8.27734375 L49.4726562,16.6757812 C49.4726562,16.9687515 49.5068356,17.1982414 49.5751953,17.3642578 C49.643555,17.5302743 49.7363275,17.6555985 49.8535156,17.7402344 C49.9707037,17.8248702 50.1106763,17.8785806 50.2734375,17.9013672 C50.4361987,17.9241538 50.6152334,17.9355469 50.8105469,17.9355469 L50.9765625,17.9355469 L50.9765625,19 L46.9921875,19 Z M59.8535156,19 L59.8535156,12.4179688 C59.8535156,11.9882791 59.8258466,11.6057959 59.7705078,11.2705078 C59.715169,10.9352197 59.6240241,10.653647 59.4970703,10.4257812 C59.3701166,10.1979155 59.2041026,10.0237636 58.9990234,9.90332031 C58.7939443,9.782877 58.5449233,9.72265625 58.2519531,9.72265625 C57.9199202,9.72265625 57.6432303,9.80729082 57.421875,9.9765625 C57.2005197,10.1458342 57.0231126,10.3720689 56.8896484,10.6552734 C56.7561842,10.938478 56.6601565,11.2672507 56.6015625,11.6416016 C56.5429685,12.0159524 56.5136719,12.4082011 56.5136719,12.8183594 L56.5136719,16.6367188 C56.5136719,16.9166681 56.5478512,17.1412752 56.6162109,17.3105469 C56.6845707,17.4798186 56.7805983,17.6116532 56.9042969,17.7060547 C57.0279954,17.8004562 57.1793611,17.8623045 57.3583984,17.8916016 C57.5374358,17.9208986 57.7376291,17.9355469 57.9589844,17.9355469 L58.0175781,17.9355469 L58.0175781,19 L51.875,19 L51.875,17.9355469 L51.9140625,17.9355469 C52.1419282,17.9355469 52.3502595,17.9208986 52.5390625,17.8916016 C52.7278655,17.8623045 52.8922519,17.7988286 53.0322266,17.7011719 C53.1722012,17.6035151 53.2812496,17.4635426 53.359375,17.28125 C53.4375004,17.0989574 53.4765625,16.8580744 53.4765625,16.5585938 L53.4765625,10.5820312 C53.4765625,10.3020819 53.4423832,10.0774748 53.3740234,9.90820312 C53.3056637,9.73893145 53.2080084,9.60709683 53.0810547,9.51269531 C52.9541009,9.4182938 52.8027353,9.35644546 52.6269531,9.32714844 C52.451171,9.29785142 52.2526053,9.28320312 52.03125,9.28320312 L51.9726562,9.28320312 L51.9726562,8.27734375 L56.171875,8.27734375 L56.4355469,9.703125 L56.5332031,9.703125 C56.7350271,9.32551895 56.9482411,9.02604277 57.1728516,8.8046875 C57.3974621,8.58333223 57.6367175,8.41406309 57.890625,8.296875 C58.1445325,8.17968691 58.4130845,8.10481787 58.6962891,8.07226562 C58.9794936,8.03971338 59.2773422,8.0234375 59.5898438,8.0234375 C60.3255245,8.0234375 60.9537734,8.15527212 61.4746094,8.41894531 C61.9954453,8.68261851 62.3763009,9.11067412 62.6171875,9.703125 L62.7929688,9.703125 C62.9947927,9.32551895 63.214517,9.02604277 63.4521484,8.8046875 C63.6897798,8.58333223 63.9436835,8.41406309 64.2138672,8.296875 C64.4840508,8.17968691 64.7672511,8.10481787 65.0634766,8.07226562 C65.359702,8.03971338 65.6640609,8.0234375 65.9765625,8.0234375 C66.490888,8.0234375 66.9531229,8.09830654 67.3632812,8.24804688 C67.7734396,8.39778721 68.1201158,8.62890469 68.4033203,8.94140625 C68.6865249,9.25390781 68.902994,9.65266685 69.0527344,10.1376953 C69.2024747,10.6227238 69.2773438,11.2037727 69.2773438,11.8808594 L69.2773438,16.5195312 C69.2773438,16.8320328 69.3050127,17.0810538 69.3603516,17.2666016 C69.4156904,17.4521494 69.4986974,17.5937495 69.609375,17.6914062 C69.7200526,17.789063 69.8600252,17.8541665 70.0292969,17.8867188 C70.1985686,17.919271 70.3938791,17.9355469 70.6152344,17.9355469 L70.6738281,17.9355469 L70.6738281,19 L66.2304688,19 L66.2304688,12.4179688 C66.2304688,11.5585895 66.1116548,10.8945336 65.8740234,10.4257812 C65.636392,9.95702891 65.2246123,9.72265625 64.6386719,9.72265625 C64.3261703,9.72265625 64.0592459,9.79915288 63.8378906,9.95214844 C63.6165354,10.105144 63.4358731,10.3118477 63.2958984,10.5722656 C63.1559238,10.8326836 63.0533857,11.1370425 62.9882812,11.4853516 C62.9231768,11.8336606 62.890625,12.1998679 62.890625,12.5839844 L62.890625,16.5195312 C62.890625,16.8320328 62.918294,17.0810538 62.9736328,17.2666016 C63.0289716,17.4521494 63.1119786,17.5937495 63.2226562,17.6914062 C63.3333339,17.789063 63.4733064,17.8541665 63.6425781,17.8867188 C63.8118498,17.919271 64.0104155,17.9355469 64.2382812,17.9355469 L64.296875,17.9355469 L64.296875,19 L59.8535156,19 Z M77.1289062,9.32226562 C76.5690076,9.32226562 76.1246761,9.59895557 75.7958984,10.1523438 C75.4671208,10.7057319 75.2864585,11.5162707 75.2539062,12.5839844 L78.7109375,12.5839844 C78.7109375,12.0761693 78.6816409,11.6204447 78.6230469,11.2167969 C78.5644528,10.813149 78.4716803,10.4713556 78.3447266,10.1914062 C78.2177728,9.91145693 78.055014,9.69661533 77.8564453,9.546875 C77.6578766,9.39713467 77.415366,9.32226562 77.1289062,9.32226562 L77.1289062,9.32226562 Z M77.3144531,19.1953125 C76.4680947,19.1953125 75.7210319,19.0716158 75.0732422,18.8242188 C74.4254525,18.5768217 73.8834657,18.2187523 73.4472656,17.75 C73.0110655,17.2812477 72.6822928,16.7067091 72.4609375,16.0263672 C72.2395822,15.3460252 72.1289062,14.5696658 72.1289062,13.6972656 C72.1289062,12.7597609 72.2395822,11.9362015 72.4609375,11.2265625 C72.6822928,10.5169235 73.0045552,9.92448154 73.4277344,9.44921875 C73.8509136,8.97395596 74.3701141,8.61751421 74.9853516,8.37988281 C75.600589,8.14225142 76.3020794,8.0234375 77.0898438,8.0234375 C77.8125036,8.0234375 78.4635388,8.12597554 79.0429688,8.33105469 C79.6223987,8.53613384 80.1139303,8.84049277 80.5175781,9.24414062 C80.921226,9.64778848 81.2304677,10.1490855 81.4453125,10.7480469 C81.6601573,11.3470082 81.7675781,12.0436158 81.7675781,12.8378906 L81.7675781,13.8632812 L75.2148438,13.8632812 C75.2343751,14.5338575 75.3076166,15.1100236 75.4345703,15.5917969 C75.5615241,16.0735701 75.7373036,16.4707016 75.9619141,16.7832031 C76.1865246,17.0957047 76.4599593,17.3268222 76.7822266,17.4765625 C77.1044938,17.6263028 77.4739563,17.7011719 77.890625,17.7011719 C78.2356788,17.7011719 78.554686,17.6604822 78.8476562,17.5791016 C79.1406265,17.4977209 79.4059233,17.3837898 79.6435547,17.2373047 C79.8811861,17.0908196 80.0895173,16.9182953 80.2685547,16.7197266 C80.447592,16.5211579 80.5957025,16.3079438 80.7128906,16.0800781 C81.0709653,16.2753916 81.25,16.6009092 81.25,17.0566406 C81.25,17.3431004 81.1718758,17.6149076 81.015625,17.8720703 C80.8593742,18.1292331 80.6184912,18.3554678 80.2929688,18.5507812 C79.9674463,18.7460947 79.5589217,18.9023432 79.0673828,19.0195312 C78.5758439,19.1367193 77.9915398,19.1953125 77.3144531,19.1953125 L77.3144531,19.1953125 Z M90.9863281,19 L90.9863281,12.4179688 C90.9863281,11.9882791 90.9586591,11.6057959 90.9033203,11.2705078 C90.8479815,10.9352197 90.7568366,10.653647 90.6298828,10.4257812 C90.5029291,10.1979155 90.3369151,10.0237636 90.1318359,9.90332031 C89.9267568,9.782877 89.6777358,9.72265625 89.3847656,9.72265625 C89.0527327,9.72265625 88.7760428,9.80729082 88.5546875,9.9765625 C88.3333322,10.1458342 88.1559251,10.3720689 88.0224609,10.6552734 C87.8889967,10.938478 87.792969,11.2672507 87.734375,11.6416016 C87.675781,12.0159524 87.6464844,12.4082011 87.6464844,12.8183594 L87.6464844,16.6367188 C87.6464844,16.9166681 87.6806637,17.1412752 87.7490234,17.3105469 C87.8173832,17.4798186 87.9134108,17.6116532 88.0371094,17.7060547 C88.1608079,17.8004562 88.3121736,17.8623045 88.4912109,17.8916016 C88.6702483,17.9208986 88.8704416,17.9355469 89.0917969,17.9355469 L89.1503906,17.9355469 L89.1503906,19 L83.0078125,19 L83.0078125,17.9355469 L83.046875,17.9355469 C83.2747407,17.9355469 83.483072,17.9208986 83.671875,17.8916016 C83.860678,17.8623045 84.0250644,17.7988286 84.1650391,17.7011719 C84.3050137,17.6035151 84.4140621,17.4635426 84.4921875,17.28125 C84.5703129,17.0989574 84.609375,16.8580744 84.609375,16.5585938 L84.609375,10.640625 C84.609375,10.3606757 84.5751957,10.1360686 84.5068359,9.96679688 C84.4384762,9.7975252 84.3408209,9.66569058 84.2138672,9.57128906 C84.0869134,9.47688755 83.9355478,9.41503921 83.7597656,9.38574219 C83.5839835,9.35644517 83.3854178,9.34179688 83.1640625,9.34179688 L83.1054688,9.34179688 L83.1054688,8.27734375 L87.3046875,8.27734375 L87.5683594,9.703125 L87.6660156,9.703125 C87.8678396,9.32551895 88.0810536,9.02604277 88.3056641,8.8046875 C88.5302746,8.58333223 88.76953,8.41406309 89.0234375,8.296875 C89.277345,8.17968691 89.545897,8.10481787 89.8291016,8.07226562 C90.1123061,8.03971338 90.4101547,8.0234375 90.7226562,8.0234375 C91.2369817,8.0234375 91.6992167,8.09830654 92.109375,8.24804688 C92.5195333,8.39778721 92.8662095,8.62890469 93.1494141,8.94140625 C93.4326186,9.25390781 93.6490878,9.65266685 93.7988281,10.1376953 C93.9485685,10.6227238 94.0234375,11.2037727 94.0234375,11.8808594 L94.0234375,16.5195312 C94.0234375,16.8320328 94.0511065,17.0810538 94.1064453,17.2666016 C94.1617841,17.4521494 94.2447911,17.5937495 94.3554688,17.6914062 C94.4661464,17.789063 94.6061189,17.8541665 94.7753906,17.8867188 C94.9446623,17.919271 95.143228,17.9355469 95.3710938,17.9355469 L95.4296875,17.9355469 L95.4296875,19 L90.9863281,19 Z M102.226562,17.5839844 C102.48698,17.5839844 102.736001,17.5660809 102.973633,17.5302734 C103.211264,17.494466 103.434244,17.4505211 103.642578,17.3984375 L103.642578,18.6972656 C103.538411,18.7493492 103.396811,18.8046872 103.217773,18.8632812 C103.038736,18.9218753 102.830405,18.9755857 102.592773,19.0244141 C102.355142,19.0732424 102.08659,19.1139321 101.787109,19.1464844 C101.487629,19.1790366 101.162111,19.1953125 100.810547,19.1953125 C100.361326,19.1953125 99.9544289,19.1416021 99.5898438,19.0341797 C99.2252586,18.9267573 98.9160169,18.7477226 98.6621094,18.4970703 C98.4082019,18.246418 98.2128913,17.9209004 98.0761719,17.5205078 C97.9394524,17.1201152 97.8710938,16.6269561 97.8710938,16.0410156 L97.8710938,9.64453125 L96.3671875,9.64453125 L96.3671875,8.61914062 C96.7968771,8.61914062 97.1809879,8.53450605 97.5195312,8.36523438 C97.8580746,8.1959627 98.1282542,8.00065215 98.3300781,7.77929688 C98.7402364,7.34960723 99.0462229,6.68880654 99.2480469,5.796875 L100.908203,5.796875 L100.908203,8.27734375 L103.466797,8.27734375 L103.466797,9.64453125 L100.908203,9.64453125 L100.908203,15.8359375 C100.908203,16.4414093 101.010741,16.8841132 101.21582,17.1640625 C101.420899,17.4440118 101.75781,17.5839844 102.226562,17.5839844 L102.226562,17.5839844 Z M121.318359,19 L121.318359,17.9355469 L121.513672,17.9355469 C121.722006,17.9355469 121.905924,17.9225262 122.06543,17.8964844 C122.224936,17.8704426 122.35677,17.8183598 122.460938,17.7402344 C122.565105,17.662109 122.643229,17.5498054 122.695312,17.4033203 C122.747396,17.2568352 122.773438,17.0631522 122.773438,16.8222656 L122.773438,6.6953125 L118.740234,19 L117.382812,19 L113.154297,6.6953125 L113.154297,16.6367188 C113.154297,16.9231785 113.188476,17.1510408 113.256836,17.3203125 C113.325196,17.4895842 113.422851,17.6197912 113.549805,17.7109375 C113.676758,17.8020838 113.831379,17.8623045 114.013672,17.8916016 C114.195964,17.9208986 114.404296,17.9355469 114.638672,17.9355469 L114.755859,17.9355469 L114.755859,19 L109.794922,19 L109.794922,17.9355469 L110.634766,17.9355469 C110.777996,17.9355469 110.911458,17.9225262 111.035156,17.8964844 C111.158855,17.8704426 111.267903,17.8167322 111.362305,17.7353516 C111.456706,17.6539709 111.529948,17.5335294 111.582031,17.3740234 C111.634115,17.2145174 111.660156,17.0045586 111.660156,16.7441406 L111.660156,6.99804688 C111.660156,6.73111846 111.634115,6.51790444 111.582031,6.35839844 C111.529948,6.19889243 111.456706,6.07682334 111.362305,5.9921875 C111.267903,5.90755166 111.158855,5.85058608 111.035156,5.82128906 C110.911458,5.79199204 110.777996,5.77734375 110.634766,5.77734375 L109.794922,5.77734375 L109.794922,4.72265625 L115.556641,4.72265625 L118.876953,14.3808594 L122.060547,4.72265625 L127.714844,4.72265625 L127.714844,5.77734375 L126.875,5.77734375 C126.73177,5.77734375 126.598308,5.79199204 126.474609,5.82128906 C126.350911,5.85058608 126.24349,5.91080684 126.152344,6.00195312 C126.061197,6.09309941 125.989584,6.22330645 125.9375,6.39257812 C125.885416,6.5618498 125.859375,6.78971211 125.859375,7.07617188 L125.859375,16.6367188 C125.859375,16.9231785 125.885416,17.1510408 125.9375,17.3203125 C125.989584,17.4895842 126.061197,17.6197912 126.152344,17.7109375 C126.24349,17.8020838 126.350911,17.8623045 126.474609,17.8916016 C126.598308,17.9208986 126.73177,17.9355469 126.875,17.9355469 L127.714844,17.9355469 L127.714844,19 L121.318359,19 Z M132.285156,16.0214844 C132.285156,16.5944039 132.376301,17.0240871 132.558594,17.3105469 C132.740886,17.5970066 133.027342,17.7402344 133.417969,17.7402344 C133.704429,17.7402344 133.963215,17.6800136 134.194336,17.5595703 C134.425457,17.439127 134.624023,17.2682303 134.790039,17.046875 C134.956056,16.8255197 135.083007,16.5569677 135.170898,16.2412109 C135.25879,15.9254542 135.302734,15.5722676 135.302734,15.1816406 L135.302734,13.6777344 L134.404297,13.7363281 C134.007159,13.7558595 133.671876,13.8193354 133.398438,13.9267578 C133.124999,14.0341802 132.906902,14.1822907 132.744141,14.3710938 C132.581379,14.5598968 132.464193,14.7910143 132.392578,15.0644531 C132.320963,15.337892 132.285156,15.6568992 132.285156,16.0214844 L132.285156,16.0214844 Z M134.0625,9.24414062 C133.808592,9.24414062 133.595378,9.29785103 133.422852,9.40527344 C133.250325,9.51269585 133.11198,9.66243394 133.007812,9.85449219 C132.903645,10.0465504 132.830404,10.2744127 132.788086,10.5380859 C132.745768,10.8017591 132.724609,11.0898422 132.724609,11.4023438 C131.826167,11.4023438 131.150718,11.3014333 130.698242,11.0996094 C130.245766,10.8977854 130.019531,10.5527368 130.019531,10.0644531 C130.019531,9.69986797 130.12858,9.38737109 130.34668,9.12695312 C130.56478,8.86653516 130.861001,8.65494873 131.235352,8.4921875 C131.609702,8.32942627 132.045896,8.21061235 132.543945,8.13574219 C133.041995,8.06087202 133.574216,8.0234375 134.140625,8.0234375 C134.843754,8.0234375 135.457354,8.08365825 135.981445,8.20410156 C136.505536,8.32454487 136.94173,8.51822783 137.290039,8.78515625 C137.638348,9.05208467 137.90039,9.40201606 138.076172,9.83496094 C138.251954,10.2679058 138.339844,10.7968719 138.339844,11.421875 L138.339844,16.5195312 C138.339844,16.7929701 138.361002,17.0208324 138.40332,17.203125 C138.445638,17.3854176 138.512369,17.5302729 138.603516,17.6376953 C138.694662,17.7451177 138.818359,17.8216144 138.974609,17.8671875 C139.13086,17.9127606 139.31966,17.9355469 139.541016,17.9355469 L139.619141,17.9355469 L139.619141,19 L135.898438,19 L135.478516,17.6230469 L135.302734,17.6230469 C135.081379,17.8899753 134.873048,18.1227204 134.677734,18.3212891 C134.482421,18.5198578 134.27409,18.6842441 134.052734,18.8144531 C133.831379,18.9446621 133.582358,19.0406898 133.305664,19.1025391 C133.02897,19.1643883 132.701825,19.1953125 132.324219,19.1953125 C131.881508,19.1953125 131.469728,19.130209 131.088867,19 C130.708006,18.869791 130.375978,18.6695977 130.092773,18.3994141 C129.809569,18.1292304 129.586589,17.7906921 129.423828,17.3837891 C129.261067,16.976886 129.179688,16.4967476 129.179688,15.9433594 C129.179688,14.8561144 129.552405,14.0520859 130.297852,13.53125 C131.043298,13.0104141 132.164706,12.7272138 133.662109,12.6816406 L135.302734,12.6230469 L135.302734,11.5195312 C135.302734,11.1874983 135.289714,10.8815118 135.263672,10.6015625 C135.23763,10.3216132 135.182292,10.0807302 135.097656,9.87890625 C135.01302,9.67708232 134.887696,9.52083389 134.72168,9.41015625 C134.555663,9.29947861 134.335939,9.24414062 134.0625,9.24414062 L134.0625,9.24414062 Z M148.642578,19 L148.642578,12.4179688 C148.642578,11.9882791 148.614909,11.6057959 148.55957,11.2705078 C148.504231,10.9352197 148.413087,10.653647 148.286133,10.4257812 C148.159179,10.1979155 147.993165,10.0237636 147.788086,9.90332031 C147.583007,9.782877 147.333986,9.72265625 147.041016,9.72265625 C146.708983,9.72265625 146.432293,9.80729082 146.210938,9.9765625 C145.989582,10.1458342 145.812175,10.3720689 145.678711,10.6552734 C145.545247,10.938478 145.449219,11.2672507 145.390625,11.6416016 C145.332031,12.0159524 145.302734,12.4082011 145.302734,12.8183594 L145.302734,16.6367188 C145.302734,16.9166681 145.336914,17.1412752 145.405273,17.3105469 C145.473633,17.4798186 145.569661,17.6116532 145.693359,17.7060547 C145.817058,17.8004562 145.968424,17.8623045 146.147461,17.8916016 C146.326498,17.9208986 146.526692,17.9355469 146.748047,17.9355469 L146.806641,17.9355469 L146.806641,19 L140.664062,19 L140.664062,17.9355469 L140.703125,17.9355469 C140.930991,17.9355469 141.139322,17.9208986 141.328125,17.8916016 C141.516928,17.8623045 141.681314,17.7988286 141.821289,17.7011719 C141.961264,17.6035151 142.070312,17.4635426 142.148438,17.28125 C142.226563,17.0989574 142.265625,16.8580744 142.265625,16.5585938 L142.265625,10.640625 C142.265625,10.3606757 142.231446,10.1360686 142.163086,9.96679688 C142.094726,9.7975252 141.997071,9.66569058 141.870117,9.57128906 C141.743163,9.47688755 141.591798,9.41503921 141.416016,9.38574219 C141.240233,9.35644517 141.041668,9.34179688 140.820312,9.34179688 L140.761719,9.34179688 L140.761719,8.27734375 L144.960938,8.27734375 L145.224609,9.703125 L145.322266,9.703125 C145.52409,9.32551895 145.737304,9.02604277 145.961914,8.8046875 C146.186525,8.58333223 146.42578,8.41406309 146.679688,8.296875 C146.933595,8.17968691 147.202147,8.10481787 147.485352,8.07226562 C147.768556,8.03971338 148.066405,8.0234375 148.378906,8.0234375 C148.893232,8.0234375 149.355467,8.09830654 149.765625,8.24804688 C150.175783,8.39778721 150.52246,8.62890469 150.805664,8.94140625 C151.088869,9.25390781 151.305338,9.65266685 151.455078,10.1376953 C151.604818,10.6227238 151.679688,11.2037727 151.679688,11.8808594 L151.679688,16.5195312 C151.679688,16.8320328 151.707356,17.0810538 151.762695,17.2666016 C151.818034,17.4521494 151.901041,17.5937495 152.011719,17.6914062 C152.122396,17.789063 152.262369,17.8541665 152.431641,17.8867188 C152.600912,17.919271 152.799478,17.9355469 153.027344,17.9355469 L153.085938,17.9355469 L153.085938,19 L148.642578,19 Z M157.607422,16.0214844 C157.607422,16.5944039 157.698567,17.0240871 157.880859,17.3105469 C158.063152,17.5970066 158.349607,17.7402344 158.740234,17.7402344 C159.026694,17.7402344 159.285481,17.6800136 159.516602,17.5595703 C159.747723,17.439127 159.946288,17.2682303 160.112305,17.046875 C160.278321,16.8255197 160.405273,16.5569677 160.493164,16.2412109 C160.581055,15.9254542 160.625,15.5722676 160.625,15.1816406 L160.625,13.6777344 L159.726562,13.7363281 C159.329425,13.7558595 158.994142,13.8193354 158.720703,13.9267578 C158.447264,14.0341802 158.229167,14.1822907 158.066406,14.3710938 C157.903645,14.5598968 157.786459,14.7910143 157.714844,15.0644531 C157.643229,15.337892 157.607422,15.6568992 157.607422,16.0214844 L157.607422,16.0214844 Z M159.384766,9.24414062 C159.130858,9.24414062 158.917644,9.29785103 158.745117,9.40527344 C158.57259,9.51269585 158.434245,9.66243394 158.330078,9.85449219 C158.225911,10.0465504 158.152669,10.2744127 158.110352,10.5380859 C158.068034,10.8017591 158.046875,11.0898422 158.046875,11.4023438 C157.148433,11.4023438 156.472984,11.3014333 156.020508,11.0996094 C155.568032,10.8977854 155.341797,10.5527368 155.341797,10.0644531 C155.341797,9.69986797 155.450845,9.38737109 155.668945,9.12695312 C155.887045,8.86653516 156.183266,8.65494873 156.557617,8.4921875 C156.931968,8.32942627 157.368162,8.21061235 157.866211,8.13574219 C158.36426,8.06087202 158.896482,8.0234375 159.462891,8.0234375 C160.166019,8.0234375 160.77962,8.08365825 161.303711,8.20410156 C161.827802,8.32454487 162.263996,8.51822783 162.612305,8.78515625 C162.960614,9.05208467 163.222655,9.40201606 163.398438,9.83496094 C163.57422,10.2679058 163.662109,10.7968719 163.662109,11.421875 L163.662109,16.5195312 C163.662109,16.7929701 163.683268,17.0208324 163.725586,17.203125 C163.767904,17.3854176 163.834635,17.5302729 163.925781,17.6376953 C164.016928,17.7451177 164.140624,17.8216144 164.296875,17.8671875 C164.453126,17.9127606 164.641926,17.9355469 164.863281,17.9355469 L164.941406,17.9355469 L164.941406,19 L161.220703,19 L160.800781,17.6230469 L160.625,17.6230469 C160.403645,17.8899753 160.195313,18.1227204 160,18.3212891 C159.804687,18.5198578 159.596355,18.6842441 159.375,18.8144531 C159.153645,18.9446621 158.904624,19.0406898 158.62793,19.1025391 C158.351236,19.1643883 158.02409,19.1953125 157.646484,19.1953125 C157.203774,19.1953125 156.791994,19.130209 156.411133,19 C156.030272,18.869791 155.698244,18.6695977 155.415039,18.3994141 C155.131835,18.1292304 154.908855,17.7906921 154.746094,17.3837891 C154.583333,16.976886 154.501953,16.4967476 154.501953,15.9433594 C154.501953,14.8561144 154.874671,14.0520859 155.620117,13.53125 C156.365564,13.0104141 157.486972,12.7272138 158.984375,12.6816406 L160.625,12.6230469 L160.625,11.5195312 C160.625,11.1874983 160.611979,10.8815118 160.585938,10.6015625 C160.559896,10.3216132 160.504558,10.0807302 160.419922,9.87890625 C160.335286,9.67708232 160.209962,9.52083389 160.043945,9.41015625 C159.877929,9.29947861 159.658204,9.24414062 159.384766,9.24414062 L159.384766,9.24414062 Z M176.689453,8.65820312 C176.689453,8.80794346 176.666667,8.95279878 176.621094,9.09277344 C176.575521,9.2327481 176.499024,9.35481719 176.391602,9.45898438 C176.284179,9.56315156 176.137696,9.64615854 175.952148,9.70800781 C175.766601,9.76985708 175.537111,9.80078125 175.263672,9.80078125 C175.263672,9.66406182 175.242513,9.54362031 175.200195,9.43945312 C175.157877,9.33528594 175.100912,9.24739619 175.029297,9.17578125 C174.957682,9.10416631 174.876303,9.05045591 174.785156,9.01464844 C174.69401,8.97884097 174.59961,8.9609375 174.501953,8.9609375 C174.391275,8.9609375 174.272462,8.98372373 174.145508,9.02929688 C174.018554,9.07487002 173.919271,9.12369766 173.847656,9.17578125 C173.984376,9.32552158 174.111328,9.49641831 174.228516,9.68847656 C174.345704,9.88053481 174.448242,10.0872385 174.536133,10.3085938 C174.624024,10.529949 174.69401,10.7594389 174.746094,10.9970703 C174.798177,11.2347017 174.824219,11.4772123 174.824219,11.7246094 C174.824219,12.225914 174.744467,12.6897765 174.584961,13.1162109 C174.425455,13.5426454 174.179689,13.9121078 173.847656,14.2246094 C173.515623,14.5371109 173.095706,14.7812491 172.587891,14.9570312 C172.080076,15.1328134 171.477868,15.2207031 170.78125,15.2207031 C170.709635,15.2207031 170.61849,15.2190755 170.507812,15.2158203 C170.397135,15.2125651 170.286459,15.2093099 170.175781,15.2060547 C170.065104,15.2027995 169.95931,15.1962891 169.858398,15.1865234 C169.757486,15.1767578 169.68099,15.1686198 169.628906,15.1621094 C169.54427,15.2076825 169.458008,15.2646481 169.370117,15.3330078 C169.282226,15.4013675 169.204102,15.4778642 169.135742,15.5625 C169.067382,15.6471358 169.012044,15.7415359 168.969727,15.8457031 C168.927409,15.9498703 168.90625,16.0605463 168.90625,16.1777344 C168.90625,16.3990896 168.992512,16.5618484 169.165039,16.6660156 C169.337566,16.7701828 169.563801,16.8222656 169.84375,16.8222656 L172.265625,16.8222656 C172.929691,16.8222656 173.502602,16.8922519 173.984375,17.0322266 C174.466148,17.1722012 174.864907,17.3723945 175.180664,17.6328125 C175.496421,17.8932305 175.729166,18.2138653 175.878906,18.5947266 C176.028647,18.9755878 176.103516,19.4036435 176.103516,19.8789062 C176.103516,20.4973989 175.986329,21.0491512 175.751953,21.5341797 C175.517577,22.0192082 175.161135,22.4293603 174.682617,22.7646484 C174.204099,23.0999366 173.601892,23.3570955 172.875977,23.5361328 C172.150061,23.7151702 171.292323,23.8046875 170.302734,23.8046875 C168.727206,23.8046875 167.553715,23.5686873 166.782227,23.0966797 C166.010738,22.6246721 165.625,21.9329473 165.625,21.0214844 C165.625,20.305335 165.856117,19.7568378 166.318359,19.3759766 C166.780601,18.9951153 167.451167,18.7688806 168.330078,18.6972656 C168.147786,18.6256507 167.968751,18.5377609 167.792969,18.4335938 C167.617187,18.3294266 167.460938,18.2041023 167.324219,18.0576172 C167.187499,17.9111321 167.076823,17.7434905 166.992188,17.5546875 C166.907552,17.3658845 166.865234,17.154298 166.865234,16.9199219 C166.865234,16.6985666 166.909179,16.4934905 166.99707,16.3046875 C167.084961,16.1158845 167.20703,15.9352222 167.363281,15.7626953 C167.519532,15.5901684 167.706705,15.4274096 167.924805,15.2744141 C168.142905,15.1214185 168.38216,14.9700528 168.642578,14.8203125 C168.349608,14.7161453 168.077801,14.57129 167.827148,14.3857422 C167.576496,14.2001944 167.361655,13.9772148 167.182617,13.7167969 C167.00358,13.4563789 166.86198,13.1601579 166.757812,12.828125 C166.653645,12.4960921 166.601562,12.1282572 166.601562,11.7246094 C166.601562,10.5527285 166.941728,9.64290688 167.62207,8.99511719 C168.302412,8.34732749 169.355462,8.0234375 170.78125,8.0234375 C171.256513,8.0234375 171.697589,8.08365825 172.104492,8.20410156 C172.511395,8.32454487 172.864582,8.4694002 173.164062,8.63867188 C173.27474,8.52148379 173.396809,8.39615952 173.530273,8.26269531 C173.663738,8.1292311 173.815103,8.00716201 173.984375,7.89648438 C174.153647,7.78580674 174.342447,7.69466182 174.550781,7.62304688 C174.759116,7.55143193 174.990233,7.515625 175.244141,7.515625 C175.485027,7.515625 175.694986,7.54654917 175.874023,7.60839844 C176.053061,7.67024771 176.202799,7.75325469 176.323242,7.85742188 C176.443685,7.96158906 176.53483,8.08203057 176.59668,8.21875 C176.658529,8.35546943 176.689453,8.50195234 176.689453,8.65820312 L176.689453,8.65820312 Z M167.988281,20.9824219 C167.988281,21.5358101 168.188475,21.9443346 168.588867,22.2080078 C168.98926,22.471681 169.573564,22.6035156 170.341797,22.6035156 C171.513678,22.6035156 172.366534,22.4342465 172.900391,22.0957031 C173.434247,21.7571598 173.701172,21.2591179 173.701172,20.6015625 C173.701172,20.1783833 173.56771,19.8821623 173.300781,19.7128906 C173.033853,19.5436189 172.630211,19.4589844 172.089844,19.4589844 L169.765625,19.4589844 C169.563801,19.4589844 169.358725,19.4768878 169.150391,19.5126953 C168.942056,19.5485028 168.751628,19.6217442 168.579102,19.7324219 C168.406575,19.8430995 168.264975,19.9977204 168.154297,20.1962891 C168.043619,20.3948578 167.988281,20.6568994 167.988281,20.9824219 L167.988281,20.9824219 Z M169.326172,11.7246094 C169.326172,12.0761736 169.350586,12.3935533 169.399414,12.6767578 C169.448242,12.9599624 169.527994,13.2024729 169.638672,13.4042969 C169.74935,13.6061208 169.892577,13.7623692 170.068359,13.8730469 C170.244142,13.9837245 170.462238,14.0390625 170.722656,14.0390625 C170.989585,14.0390625 171.210937,13.9853521 171.386719,13.8779297 C171.562501,13.7705073 171.702473,13.6142588 171.806641,13.4091797 C171.910808,13.2041005 171.984049,12.9567072 172.026367,12.6669922 C172.068685,12.3772772 172.089844,12.0533872 172.089844,11.6953125 C172.089844,11.3242169 172.067058,10.9873062 172.021484,10.6845703 C171.975911,10.3818344 171.899415,10.1230479 171.791992,9.90820312 C171.68457,9.6933583 171.54297,9.52571675 171.367188,9.40527344 C171.191405,9.28483013 170.970053,9.22460938 170.703125,9.22460938 C170.442707,9.22460938 170.22461,9.28645771 170.048828,9.41015625 C169.873046,9.53385479 169.731446,9.7063791 169.624023,9.92773438 C169.516601,10.1490896 169.440104,10.4127589 169.394531,10.71875 C169.348958,11.0247411 169.326172,11.3600242 169.326172,11.7246094 L169.326172,11.7246094 Z M182.724609,9.32226562 C182.164711,9.32226562 181.720379,9.59895557 181.391602,10.1523438 C181.062824,10.7057319 180.882162,11.5162707 180.849609,12.5839844 L184.306641,12.5839844 C184.306641,12.0761693 184.277344,11.6204447 184.21875,11.2167969 C184.160156,10.813149 184.067383,10.4713556 183.94043,10.1914062 C183.813476,9.91145693 183.650717,9.69661533 183.452148,9.546875 C183.25358,9.39713467 183.011069,9.32226562 182.724609,9.32226562 L182.724609,9.32226562 Z M182.910156,19.1953125 C182.063798,19.1953125 181.316735,19.0716158 180.668945,18.8242188 C180.021156,18.5768217 179.479169,18.2187523 179.042969,17.75 C178.606769,17.2812477 178.277996,16.7067091 178.056641,16.0263672 C177.835285,15.3460252 177.724609,14.5696658 177.724609,13.6972656 C177.724609,12.7597609 177.835285,11.9362015 178.056641,11.2265625 C178.277996,10.5169235 178.600258,9.92448154 179.023438,9.44921875 C179.446617,8.97395596 179.965817,8.61751421 180.581055,8.37988281 C181.196292,8.14225142 181.897783,8.0234375 182.685547,8.0234375 C183.408207,8.0234375 184.059242,8.12597554 184.638672,8.33105469 C185.218102,8.53613384 185.709633,8.84049277 186.113281,9.24414062 C186.516929,9.64778848 186.826171,10.1490855 187.041016,10.7480469 C187.25586,11.3470082 187.363281,12.0436158 187.363281,12.8378906 L187.363281,13.8632812 L180.810547,13.8632812 C180.830078,14.5338575 180.90332,15.1100236 181.030273,15.5917969 C181.157227,16.0735701 181.333007,16.4707016 181.557617,16.7832031 C181.782228,17.0957047 182.055662,17.3268222 182.37793,17.4765625 C182.700197,17.6263028 183.069659,17.7011719 183.486328,17.7011719 C183.831382,17.7011719 184.150389,17.6604822 184.443359,17.5791016 C184.73633,17.4977209 185.001626,17.3837898 185.239258,17.2373047 C185.476889,17.0908196 185.68522,16.9182953 185.864258,16.7197266 C186.043295,16.5211579 186.191406,16.3079438 186.308594,16.0800781 C186.666668,16.2753916 186.845703,16.6009092 186.845703,17.0566406 C186.845703,17.3431004 186.767579,17.6149076 186.611328,17.8720703 C186.455077,18.1292331 186.214194,18.3554678 185.888672,18.5507812 C185.563149,18.7460947 185.154625,18.9023432 184.663086,19.0195312 C184.171547,19.1367193 183.587243,19.1953125 182.910156,19.1953125 L182.910156,19.1953125 Z M196.582031,19 L196.582031,12.4179688 C196.582031,11.9882791 196.554362,11.6057959 196.499023,11.2705078 C196.443685,10.9352197 196.35254,10.653647 196.225586,10.4257812 C196.098632,10.1979155 195.932618,10.0237636 195.727539,9.90332031 C195.52246,9.782877 195.273439,9.72265625 194.980469,9.72265625 C194.648436,9.72265625 194.371746,9.80729082 194.150391,9.9765625 C193.929035,10.1458342 193.751628,10.3720689 193.618164,10.6552734 C193.4847,10.938478 193.388672,11.2672507 193.330078,11.6416016 C193.271484,12.0159524 193.242188,12.4082011 193.242188,12.8183594 L193.242188,16.6367188 C193.242188,16.9166681 193.276367,17.1412752 193.344727,17.3105469 C193.413086,17.4798186 193.509114,17.6116532 193.632812,17.7060547 C193.756511,17.8004562 193.907877,17.8623045 194.086914,17.8916016 C194.265951,17.9208986 194.466145,17.9355469 194.6875,17.9355469 L194.746094,17.9355469 L194.746094,19 L188.603516,19 L188.603516,17.9355469 L188.642578,17.9355469 C188.870444,17.9355469 189.078775,17.9208986 189.267578,17.8916016 C189.456381,17.8623045 189.620768,17.7988286 189.760742,17.7011719 C189.900717,17.6035151 190.009765,17.4635426 190.087891,17.28125 C190.166016,17.0989574 190.205078,16.8580744 190.205078,16.5585938 L190.205078,10.5820312 C190.205078,10.3020819 190.170899,10.0774748 190.102539,9.90820312 C190.034179,9.73893145 189.936524,9.60709683 189.80957,9.51269531 C189.682617,9.4182938 189.531251,9.35644546 189.355469,9.32714844 C189.179687,9.29785142 188.981121,9.28320312 188.759766,9.28320312 L188.701172,9.28320312 L188.701172,8.27734375 L192.900391,8.27734375 L193.164062,9.703125 L193.261719,9.703125 C193.463543,9.32551895 193.676757,9.02604277 193.901367,8.8046875 C194.125978,8.58333223 194.365233,8.41406309 194.619141,8.296875 C194.873048,8.17968691 195.1416,8.10481787 195.424805,8.07226562 C195.708009,8.03971338 196.005858,8.0234375 196.318359,8.0234375 C197.05404,8.0234375 197.682289,8.15527212 198.203125,8.41894531 C198.723961,8.68261851 199.104817,9.11067412 199.345703,9.703125 L199.521484,9.703125 C199.723308,9.32551895 199.943033,9.02604277 200.180664,8.8046875 C200.418295,8.58333223 200.672199,8.41406309 200.942383,8.296875 C201.212566,8.17968691 201.495767,8.10481787 201.791992,8.07226562 C202.088218,8.03971338 202.392577,8.0234375 202.705078,8.0234375 C203.219404,8.0234375 203.681639,8.09830654 204.091797,8.24804688 C204.501955,8.39778721 204.848631,8.62890469 205.131836,8.94140625 C205.41504,9.25390781 205.63151,9.65266685 205.78125,10.1376953 C205.93099,10.6227238 206.005859,11.2037727 206.005859,11.8808594 L206.005859,16.5195312 C206.005859,16.8320328 206.033528,17.0810538 206.088867,17.2666016 C206.144206,17.4521494 206.227213,17.5937495 206.337891,17.6914062 C206.448568,17.789063 206.588541,17.8541665 206.757812,17.8867188 C206.927084,17.919271 207.122395,17.9355469 207.34375,17.9355469 L207.402344,17.9355469 L207.402344,19 L202.958984,19 L202.958984,12.4179688 C202.958984,11.5585895 202.84017,10.8945336 202.602539,10.4257812 C202.364908,9.95702891 201.953128,9.72265625 201.367188,9.72265625 C201.054686,9.72265625 200.787762,9.79915288 200.566406,9.95214844 C200.345051,10.105144 200.164389,10.3118477 200.024414,10.5722656 C199.884439,10.8326836 199.781901,11.1370425 199.716797,11.4853516 C199.651692,11.8336606 199.619141,12.1998679 199.619141,12.5839844 L199.619141,16.5195312 C199.619141,16.8320328 199.64681,17.0810538 199.702148,17.2666016 C199.757487,17.4521494 199.840494,17.5937495 199.951172,17.6914062 C200.06185,17.789063 200.201822,17.8541665 200.371094,17.8867188 C200.540365,17.919271 200.738931,17.9355469 200.966797,17.9355469 L201.025391,17.9355469 L201.025391,19 L196.582031,19 Z M213.857422,9.32226562 C213.297523,9.32226562 212.853192,9.59895557 212.524414,10.1523438 C212.195636,10.7057319 212.014974,11.5162707 211.982422,12.5839844 L215.439453,12.5839844 C215.439453,12.0761693 215.410157,11.6204447 215.351562,11.2167969 C215.292968,10.813149 215.200196,10.4713556 215.073242,10.1914062 C214.946288,9.91145693 214.78353,9.69661533 214.584961,9.546875 C214.386392,9.39713467 214.143882,9.32226562 213.857422,9.32226562 L213.857422,9.32226562 Z M214.042969,19.1953125 C213.19661,19.1953125 212.449548,19.0716158 211.801758,18.8242188 C211.153968,18.5768217 210.611981,18.2187523 210.175781,17.75 C209.739581,17.2812477 209.410808,16.7067091 209.189453,16.0263672 C208.968098,15.3460252 208.857422,14.5696658 208.857422,13.6972656 C208.857422,12.7597609 208.968098,11.9362015 209.189453,11.2265625 C209.410808,10.5169235 209.733071,9.92448154 210.15625,9.44921875 C210.579429,8.97395596 211.09863,8.61751421 211.713867,8.37988281 C212.329105,8.14225142 213.030595,8.0234375 213.818359,8.0234375 C214.541019,8.0234375 215.192054,8.12597554 215.771484,8.33105469 C216.350914,8.53613384 216.842446,8.84049277 217.246094,9.24414062 C217.649742,9.64778848 217.958983,10.1490855 218.173828,10.7480469 C218.388673,11.3470082 218.496094,12.0436158 218.496094,12.8378906 L218.496094,13.8632812 L211.943359,13.8632812 C211.962891,14.5338575 212.036132,15.1100236 212.163086,15.5917969 C212.29004,16.0735701 212.465819,16.4707016 212.69043,16.7832031 C212.91504,17.0957047 213.188475,17.3268222 213.510742,17.4765625 C213.833009,17.6263028 214.202472,17.7011719 214.619141,17.7011719 C214.964194,17.7011719 215.283202,17.6604822 215.576172,17.5791016 C215.869142,17.4977209 216.134439,17.3837898 216.37207,17.2373047 C216.609702,17.0908196 216.818033,16.9182953 216.99707,16.7197266 C217.176108,16.5211579 217.324218,16.3079438 217.441406,16.0800781 C217.799481,16.2753916 217.978516,16.6009092 217.978516,17.0566406 C217.978516,17.3431004 217.900391,17.6149076 217.744141,17.8720703 C217.58789,18.1292331 217.347007,18.3554678 217.021484,18.5507812 C216.695962,18.7460947 216.287437,18.9023432 215.795898,19.0195312 C215.30436,19.1367193 214.720055,19.1953125 214.042969,19.1953125 L214.042969,19.1953125 Z M227.714844,19 L227.714844,12.4179688 C227.714844,11.9882791 227.687175,11.6057959 227.631836,11.2705078 C227.576497,10.9352197 227.485352,10.653647 227.358398,10.4257812 C227.231445,10.1979155 227.065431,10.0237636 226.860352,9.90332031 C226.655272,9.782877 226.406251,9.72265625 226.113281,9.72265625 C225.781248,9.72265625 225.504558,9.80729082 225.283203,9.9765625 C225.061848,10.1458342 224.884441,10.3720689 224.750977,10.6552734 C224.617512,10.938478 224.521485,11.2672507 224.462891,11.6416016 C224.404297,12.0159524 224.375,12.4082011 224.375,12.8183594 L224.375,16.6367188 C224.375,16.9166681 224.409179,17.1412752 224.477539,17.3105469 C224.545899,17.4798186 224.641926,17.6116532 224.765625,17.7060547 C224.889324,17.8004562 225.040689,17.8623045 225.219727,17.8916016 C225.398764,17.9208986 225.598957,17.9355469 225.820312,17.9355469 L225.878906,17.9355469 L225.878906,19 L219.736328,19 L219.736328,17.9355469 L219.775391,17.9355469 C220.003256,17.9355469 220.211588,17.9208986 220.400391,17.8916016 C220.589194,17.8623045 220.75358,17.7988286 220.893555,17.7011719 C221.033529,17.6035151 221.142578,17.4635426 221.220703,17.28125 C221.298829,17.0989574 221.337891,16.8580744 221.337891,16.5585938 L221.337891,10.640625 C221.337891,10.3606757 221.303711,10.1360686 221.235352,9.96679688 C221.166992,9.7975252 221.069337,9.66569058 220.942383,9.57128906 C220.815429,9.47688755 220.664063,9.41503921 220.488281,9.38574219 C220.312499,9.35644517 220.113933,9.34179688 219.892578,9.34179688 L219.833984,9.34179688 L219.833984,8.27734375 L224.033203,8.27734375 L224.296875,9.703125 L224.394531,9.703125 C224.596355,9.32551895 224.809569,9.02604277 225.03418,8.8046875 C225.25879,8.58333223 225.498046,8.41406309 225.751953,8.296875 C226.005861,8.17968691 226.274413,8.10481787 226.557617,8.07226562 C226.840822,8.03971338 227.13867,8.0234375 227.451172,8.0234375 C227.965497,8.0234375 228.427732,8.09830654 228.837891,8.24804688 C229.248049,8.39778721 229.594725,8.62890469 229.87793,8.94140625 C230.161134,9.25390781 230.377603,9.65266685 230.527344,10.1376953 C230.677084,10.6227238 230.751953,11.2037727 230.751953,11.8808594 L230.751953,16.5195312 C230.751953,16.8320328 230.779622,17.0810538 230.834961,17.2666016 C230.8903,17.4521494 230.973307,17.5937495 231.083984,17.6914062 C231.194662,17.789063 231.334635,17.8541665 231.503906,17.8867188 C231.673178,17.919271 231.871744,17.9355469 232.099609,17.9355469 L232.158203,17.9355469 L232.158203,19 L227.714844,19 Z M238.955078,17.5839844 C239.215496,17.5839844 239.464517,17.5660809 239.702148,17.5302734 C239.93978,17.494466 240.162759,17.4505211 240.371094,17.3984375 L240.371094,18.6972656 C240.266927,18.7493492 240.125326,18.8046872 239.946289,18.8632812 C239.767252,18.9218753 239.55892,18.9755857 239.321289,19.0244141 C239.083658,19.0732424 238.815106,19.1139321 238.515625,19.1464844 C238.216144,19.1790366 237.890627,19.1953125 237.539062,19.1953125 C237.089842,19.1953125 236.682945,19.1416021 236.318359,19.0341797 C235.953774,18.9267573 235.644533,18.7477226 235.390625,18.4970703 C235.136717,18.246418 234.941407,17.9209004 234.804688,17.5205078 C234.667968,17.1201152 234.599609,16.6269561 234.599609,16.0410156 L234.599609,9.64453125 L233.095703,9.64453125 L233.095703,8.61914062 C233.525393,8.61914062 233.909504,8.53450605 234.248047,8.36523438 C234.58659,8.1959627 234.85677,8.00065215 235.058594,7.77929688 C235.468752,7.34960723 235.774739,6.68880654 235.976562,5.796875 L237.636719,5.796875 L237.636719,8.27734375 L240.195312,8.27734375 L240.195312,9.64453125 L237.636719,9.64453125 L237.636719,15.8359375 C237.636719,16.4414093 237.739257,16.8841132 237.944336,17.1640625 C238.149415,17.4440118 238.486326,17.5839844 238.955078,17.5839844 L238.955078,17.5839844 Z" id="Document-Management" fill="#1F1F1F"></path>
                <path d="M4.58007812,26.3574219 C5.00846568,26.3574219 5.39811022,26.4394523 5.74902344,26.6035156 C6.09993665,26.7675789 6.39957558,27.0125309 6.64794922,27.3383789 C6.89632286,27.6642269 7.0888665,28.0686825 7.22558594,28.5517578 C7.36230537,29.0348331 7.43066406,29.5953744 7.43066406,30.2333984 C7.43066406,30.8759798 7.36230537,31.439939 7.22558594,31.925293 C7.0888665,32.410647 6.89632286,32.8173812 6.64794922,33.1455078 C6.39957558,33.4736345 6.09993665,33.7208651 5.74902344,33.887207 C5.39811022,34.053549 5.00846568,34.1367188 4.58007812,34.1367188 C4.31119657,34.1367188 4.06738391,34.1070967 3.84863281,34.0478516 C3.62988172,33.9886065 3.43278083,33.909994 3.25732422,33.8120117 C3.08186761,33.7140295 2.92692125,33.598959 2.79248047,33.4667969 C2.65803969,33.3346348 2.53841198,33.1956388 2.43359375,33.0498047 L2.3515625,33.0498047 L2.09863281,34 L1.18945312,34 L1.18945312,23.3632812 L2.43359375,23.3632812 L2.43359375,25.9335938 C2.43359375,26.0930998 2.43131513,26.2628572 2.42675781,26.4428711 C2.4222005,26.622885 2.41536463,26.7903638 2.40625,26.9453125 C2.39713537,27.1276051 2.38802088,27.3053377 2.37890625,27.4785156 L2.43359375,27.4785156 C2.53841198,27.3190096 2.65690038,27.1708991 2.7890625,27.0341797 C2.92122462,26.8974603 3.07503167,26.7789719 3.25048828,26.6787109 C3.42594489,26.57845 3.62304578,26.4998375 3.84179688,26.4428711 C4.06054797,26.3859047 4.30663926,26.3574219 4.58007812,26.3574219 L4.58007812,26.3574219 Z M4.34082031,27.3896484 C3.97623516,27.3896484 3.67203898,27.4477533 3.42822266,27.5639648 C3.18440633,27.6801764 2.98844475,27.8567696 2.84033203,28.09375 C2.69221931,28.3307304 2.58740265,28.6269513 2.52587891,28.9824219 C2.46435516,29.3378924 2.43359375,29.7548804 2.43359375,30.2333984 C2.43359375,30.6936872 2.46435516,31.1027 2.52587891,31.4604492 C2.58740265,31.8181984 2.69221931,32.1189766 2.84033203,32.362793 C2.98844475,32.6066093 3.18554564,32.7911778 3.43164062,32.9165039 C3.67773561,33.0418301 3.98534972,33.1044922 4.35449219,33.1044922 C4.96972964,33.1044922 5.42203631,32.8561223 5.71142578,32.359375 C6.00081525,31.8626277 6.14550781,31.1494187 6.14550781,30.2197266 C6.14550781,29.2718052 6.00081525,28.5631534 5.71142578,28.09375 C5.42203631,27.6243466 4.96517239,27.3896484 4.34082031,27.3896484 L4.34082031,27.3896484 Z M8.27148438,26.4941406 L9.56347656,26.4941406 L11.0332031,30.6845703 C11.0970055,30.8668629 11.1619463,31.0582672 11.2280273,31.2587891 C11.2941084,31.4593109 11.3556312,31.6598297 11.4125977,31.8603516 C11.4695641,32.0608734 11.5185545,32.2545564 11.5595703,32.4414062 C11.6005861,32.6282561 11.6302082,32.8014315 11.6484375,32.9609375 L11.6894531,32.9609375 C11.7122397,32.8470046 11.7486977,32.6920583 11.7988281,32.4960938 C11.8489586,32.3001292 11.9047848,32.0916352 11.9663086,31.8706055 C12.0278323,31.6495757 12.0916338,31.4319672 12.1577148,31.2177734 C12.2237959,31.0035797 12.2819008,30.8212898 12.3320312,30.6708984 L13.6923828,26.4941406 L14.9775391,26.4941406 L12.0107422,34.9775391 C11.8831374,35.3466815 11.7452807,35.6782212 11.597168,35.972168 C11.4490552,36.2661148 11.2770192,36.515624 11.0810547,36.7207031 C10.8850902,36.9257823 10.6549492,37.0841466 10.390625,37.1958008 C10.1263008,37.307455 9.81185078,37.3632812 9.44726562,37.3632812 C9.21028527,37.3632812 9.0052092,37.3507488 8.83203125,37.3256836 C8.6588533,37.3006184 8.5107428,37.2744142 8.38769531,37.2470703 L8.38769531,36.2558594 C8.48339892,36.2786459 8.60416594,36.2980142 8.75,36.3139648 C8.89583406,36.3299154 9.04850181,36.3378906 9.20800781,36.3378906 C9.42675891,36.3378906 9.61588462,36.3116865 9.77539062,36.2592773 C9.93489663,36.2068682 10.0738926,36.1305344 10.1923828,36.0302734 C10.310873,35.9300125 10.4122717,35.8069669 10.496582,35.6611328 C10.5808923,35.5152987 10.6572262,35.3489593 10.7255859,35.1621094 L11.1152344,34.0683594 L8.27148438,26.4941406 Z M27.1386719,34 L25.8671875,34 L25.8671875,29.3378906 L21.3144531,29.3378906 L21.3144531,34 L20.0429688,34 L20.0429688,24.0058594 L21.3144531,24.0058594 L21.3144531,28.2167969 L25.8671875,28.2167969 L25.8671875,24.0058594 L27.1386719,24.0058594 L27.1386719,34 Z M32.6552734,34.1367188 C32.1539688,34.1367188 31.6959656,34.0524097 31.28125,33.8837891 C30.8665344,33.7151684 30.5099299,33.4690771 30.2114258,33.1455078 C29.9129217,32.8219385 29.6816414,32.4209008 29.5175781,31.9423828 C29.3535148,31.4638648 29.2714844,30.9169953 29.2714844,30.3017578 C29.2714844,29.681963 29.3466789,29.1282576 29.4970703,28.640625 C29.6474617,28.1529924 29.8593736,27.7394223 30.1328125,27.3999023 C30.4062514,27.0603824 30.7332338,26.8017587 31.1137695,26.6240234 C31.4943053,26.4462882 31.9147112,26.3574219 32.375,26.3574219 C32.8261741,26.3574219 33.231769,26.438313 33.5917969,26.6000977 C33.9518247,26.7618823 34.2571602,26.9897446 34.5078125,27.2836914 C34.7584648,27.5776382 34.9510084,27.9308248 35.0854492,28.3432617 C35.21989,28.7556987 35.2871094,29.2125626 35.2871094,29.7138672 L35.2871094,30.4863281 L30.5566406,30.4863281 C30.5794272,31.3658898 30.765135,32.0130188 31.1137695,32.4277344 C31.4624041,32.84245 31.9807908,33.0498047 32.6689453,33.0498047 C32.9013683,33.0498047 33.1166982,33.0384116 33.3149414,33.015625 C33.5131846,32.9928384 33.7045889,32.9597984 33.8891602,32.9165039 C34.0737314,32.8732094 34.2526033,32.8185225 34.4257812,32.7524414 C34.5989592,32.6863603 34.7744132,32.6123051 34.9521484,32.5302734 L34.9521484,33.6376953 C34.7698559,33.7242843 34.590984,33.7994788 34.4155273,33.8632812 C34.2400707,33.9270837 34.0600595,33.979492 33.8754883,34.0205078 C33.690917,34.0615236 33.4995127,34.0911457 33.3012695,34.109375 C33.1030264,34.1276043 32.8876965,34.1367188 32.6552734,34.1367188 L32.6552734,34.1367188 Z M32.3476562,27.3896484 C31.8281224,27.3896484 31.4168309,27.567381 31.1137695,27.9228516 C30.8107081,28.2783221 30.6341148,28.7955695 30.5839844,29.4746094 L33.9472656,29.4746094 C33.9472656,29.164712 33.9165042,28.8810234 33.8549805,28.6235352 C33.7934567,28.3660469 33.6977546,28.1461598 33.5678711,27.9638672 C33.4379876,27.7815746 33.2727875,27.6403 33.0722656,27.5400391 C32.8717438,27.4397781 32.6302097,27.3896484 32.3476562,27.3896484 L32.3476562,27.3896484 Z M38.7802734,30.1513672 L36.3671875,26.4941406 L37.7822266,26.4941406 L39.4912109,29.296875 L41.2001953,26.4941406 L42.6152344,26.4941406 L40.1884766,30.1513672 L42.7382812,34 L41.3232422,34 L39.4912109,31.0195312 L37.6455078,34 L36.2304688,34 L38.7802734,30.1513672 Z M45.4248047,34 L44.1806641,34 L44.1806641,26.4941406 L45.4248047,26.4941406 L45.4248047,34 Z M44.0849609,24.4638672 C44.0849609,24.1904283 44.1544589,23.9921881 44.293457,23.8691406 C44.4324551,23.7460931 44.6044912,23.6845703 44.8095703,23.6845703 C44.9098312,23.6845703 45.0043941,23.6993814 45.0932617,23.7290039 C45.1821294,23.7586265 45.2596025,23.8053382 45.3256836,23.8691406 C45.3917647,23.932943 45.444173,24.0138341 45.4829102,24.1118164 C45.5216473,24.2097987 45.5410156,24.3271478 45.5410156,24.4638672 C45.5410156,24.7281914 45.469239,24.9252923 45.3256836,25.0551758 C45.1821282,25.1850592 45.0100921,25.25 44.8095703,25.25 C44.6044912,25.25 44.4324551,25.1861986 44.293457,25.0585938 C44.1544589,24.9309889 44.0849609,24.7327487 44.0849609,24.4638672 L44.0849609,24.4638672 Z M52.2949219,31.9423828 C52.2949219,32.306968 52.2288418,32.6259752 52.0966797,32.8994141 C51.9645176,33.1728529 51.7742525,33.4018545 51.5258789,33.5864258 C51.2775053,33.770997 50.9778663,33.9088537 50.6269531,34 C50.2760399,34.0911463 49.8818381,34.1367188 49.4443359,34.1367188 C48.9475887,34.1367188 48.5214862,34.0968428 48.1660156,34.0170898 C47.8105451,33.9373368 47.4983737,33.8199878 47.2294922,33.6650391 L47.2294922,32.5302734 C47.3707689,32.6031905 47.5279939,32.6749671 47.7011719,32.7456055 C47.8743498,32.8162438 48.0566397,32.878906 48.2480469,32.9335938 C48.4394541,32.9882815 48.636555,33.0327147 48.8393555,33.0668945 C49.042156,33.1010744 49.2438141,33.1181641 49.4443359,33.1181641 C49.7405614,33.1181641 49.9923492,33.0930992 50.199707,33.0429688 C50.4070648,32.9928383 50.5756829,32.9210617 50.7055664,32.8276367 C50.8354499,32.7342118 50.9300127,32.6202806 50.9892578,32.4858398 C51.0485029,32.3513991 51.078125,32.2021493 51.078125,32.0380859 C51.078125,31.8968092 51.0553388,31.7692063 51.0097656,31.6552734 C50.9641925,31.5413406 50.8810227,31.4285487 50.7602539,31.3168945 C50.6394851,31.2052403 50.4742849,31.0924485 50.2646484,30.9785156 C50.055012,30.8645828 49.7861345,30.7369799 49.4580078,30.5957031 C49.1298812,30.4544264 48.8347995,30.3154304 48.5727539,30.1787109 C48.3107083,30.0419915 48.0885426,29.8893238 47.90625,29.7207031 C47.7239574,29.5520825 47.5838221,29.3572602 47.4858398,29.1362305 C47.3878576,28.9152007 47.3388672,28.6520198 47.3388672,28.3466797 C47.3388672,28.0276677 47.4015293,27.7439791 47.5268555,27.4956055 C47.6521816,27.2472318 47.8287749,27.0387378 48.0566406,26.8701172 C48.2845063,26.7014966 48.5579411,26.5738937 48.8769531,26.4873047 C49.1959651,26.4007157 49.5514303,26.3574219 49.9433594,26.3574219 C50.3854189,26.3574219 50.7898745,26.405273 51.1567383,26.5009766 C51.5236021,26.5966802 51.8710921,26.7220044 52.1992188,26.8769531 L51.7685547,27.8818359 C51.4723292,27.7496738 51.1681331,27.6346034 50.855957,27.5366211 C50.543781,27.4386388 50.2259131,27.3896484 49.9023438,27.3896484 C49.4374977,27.3896484 49.0934256,27.4659823 48.8701172,27.6186523 C48.6468088,27.7713224 48.5351562,27.9889309 48.5351562,28.2714844 C48.5351562,28.4309904 48.5613604,28.5699864 48.6137695,28.6884766 C48.6661786,28.8069667 48.7561843,28.9186193 48.8837891,29.0234375 C49.0113939,29.1282557 49.1822906,29.2342117 49.3964844,29.3413086 C49.6106782,29.4484055 49.8772771,29.5680332 50.1962891,29.7001953 C50.5244157,29.8369147 50.8172188,29.9736321 51.074707,30.1103516 C51.3321953,30.247071 51.5520824,30.4008781 51.734375,30.5717773 C51.9166676,30.7426766 52.0556636,30.9374989 52.1513672,31.15625 C52.2470708,31.3750011 52.2949219,31.6370427 52.2949219,31.9423828 L52.2949219,31.9423828 Z" id="by-Hexis" fill="#797979"></path>
            </g>
        </g>
    </g>
</svg>